<svg xmlns="http://www.w3.org/2000/svg" width="800" height="400" viewBox="0 0 800 400" role="img" aria-label="Mapa sede compañia">
  <defs>
    <linearGradient id="bg" x1="0" x2="1" y1="0" y2="1">
      <stop offset="0%" stop-color="#f7fbff"/>
      <stop offset="100%" stop-color="#d9e9f7"/>
    </linearGradient>
    <radialGradient id="halo" cx="50%" cy="50%" r="70%">
      <stop offset="0%" stop-color="#ffffff" stop-opacity="0.55"/>
      <stop offset="100%" stop-color="#ffffff" stop-opacity="0"/>
    </radialGradient>
  </defs>
  <rect width="800" height="400" fill="url(#bg)"/>
  <rect width="800" height="400" fill="url(#halo)"/>
  <g stroke="#a7c5de" stroke-width="6" fill="none" opacity="0.95">
    <path d="M20 70H780"/>
    <path d="M20 160H780"/>
    <path d="M20 250H780"/>
    <path d="M20 340H780"/>
    <path d="M120 20V380"/>
    <path d="M280 20V380"/>
    <path d="M440 20V380"/>
    <path d="M600 20V380"/>
  </g>
  <g transform="translate(390,190)">
    <path d="M10 0c0-22 18-40 40-40s40 18 40 40c0 28-40 82-40 82S10 28 10 0z" fill="#e63946"/>
    <circle cx="50" cy="0" r="16" fill="#fff"/>
  </g>
</svg>