<svg xmlns="http://www.w3.org/2000/svg" width="800" height="400" viewBox="0 0 800 400" role="img" aria-label="Mapa sede centro">
  <defs>
    <linearGradient id="bg" x1="0" x2="1" y1="0" y2="1">
      <stop offset="0%" stop-color="#e8f2f8"/>
      <stop offset="100%" stop-color="#d4e8f5"/>
    </linearGradient>
  </defs>
  <rect width="800" height="400" fill="url(#bg)"/>
  <g stroke="#b9d3e7" stroke-width="6" fill="none" opacity="0.9">
    <path d="M20 70H780"/>
    <path d="M20 160H780"/>
    <path d="M20 250H780"/>
    <path d="M20 340H780"/>
    <path d="M120 20V380"/>
    <path d="M280 20V380"/>
    <path d="M440 20V380"/>
    <path d="M600 20V380"/>
  </g>
  <g transform="translate(390,190)">
    <path d="M10 0c0-22 18-40 40-40s40 18 40 40c0 28-40 82-40 82S10 28 10 0z" fill="#e63946"/>
    <circle cx="50" cy="0" r="16" fill="#fff"/>
  </g>
  <rect x="20" y="20" width="300" height="54" rx="14" fill="#ffffff" fill-opacity="0.9"/>
  <text x="36" y="54" font-family="Arial, sans-serif" font-size="22" fill="#1a2332">Sede Centro · IDH Yoga</text>
</svg>