<svg xmlns="http://www.w3.org/2000/svg" width="800" height="400" viewBox="0 0 800 400" role="img" aria-label="Mapa sede vergara">
  <defs>
    <linearGradient id="bg2" x1="0" x2="1" y1="0" y2="1">
      <stop offset="0%" stop-color="#f8fcff"/>
      <stop offset="100%" stop-color="#d7e9f8"/>
    </linearGradient>
    <radialGradient id="halo2" cx="50%" cy="50%" r="70%">
      <stop offset="0%" stop-color="#ffffff" stop-opacity="0.55"/>
      <stop offset="100%" stop-color="#ffffff" stop-opacity="0"/>
    </radialGradient>
  </defs>
  <rect width="800" height="400" fill="url(#bg2)"/>
  <rect width="800" height="400" fill="url(#halo2)"/>
  <g stroke="#a3c3de" stroke-width="7" fill="none" opacity="0.95">
    <path d="M40 80L760 80"/>
    <path d="M40 200L760 200"/>
    <path d="M40 320L760 320"/>
    <path d="M180 30L180 370"/>
    <path d="M360 30L360 370"/>
    <path d="M540 30L540 370"/>
    <path d="M720 30L720 370"/>
  </g>
  <g transform="translate(250,150)">
    <path d="M10 0c0-22 18-40 40-40s40 18 40 40c0 28-40 82-40 82S10 28 10 0z" fill="#e63946"/>
    <circle cx="50" cy="0" r="16" fill="#fff"/>
  </g>
</svg>